<svg xmlns="http://www.w3.org/2000/svg" viewBox="0 0 197.645 26.001">
  <defs>
    <style>
      .cls-1 {
        opacity: 0.7;
      }

      .cls-2 {
        fill: #fff;
      }
    </style>
  </defs>
  <g id="logo-opencell" class="cls-1" transform="translate(0.04 0.021)">
    <path id="Tracé_3" data-name="Tracé 3" class="cls-2" d="M408.672,284.549V264.774h-5.721v24.719H415.7v-4.945Zm-19.526,0V264.774h-5.721v24.719h12.73v-4.945Zm-13.774-15.183v-4.591H360.293v24.719h15.078V284.9h-9.358v-5.434h9.358v-4.487h-9.358v-5.616Zm-28.146,11.255a6.116,6.116,0,0,1-6.21,4.347c-4.487,0-7.491-3.493-7.491-7.84,0-4.1,2.686-7.84,7.417-7.84a6.034,6.034,0,0,1,6.357,5.084h5.969c-.671-5.686-5.154-10.242-12.4-10.242-8.442,0-13.173,6.21-13.173,13,0,6.92,4.98,12.994,13.243,12.994,6.924,0,11.407-4.269,12.362-9.5ZM306.05,264.774h-5.969v24.719H305.8V273.6l8.9,15.89h5.965V264.774h-5.686v16.1Zm-14.023,4.591v-4.591H276.949v24.719h15.078V284.9H282.67v-5.434h9.357v-4.487H282.67v-5.616Zm-31.395,8.616h-3.92v-8.539h3.92a4.282,4.282,0,0,1,0,8.539M251,289.493h5.721v-6.85h4.626a8.927,8.927,0,1,0,0-17.853H251Z" transform="translate(-218.097 -264.15)"/>
    <path id="Tracé_4" data-name="Tracé 4" class="cls-2" d="M166.353,280.75a13.135,13.135,0,0,0,25.181,0h-6.152a6.987,6.987,0,0,1-12.847,0Zm25.4-6.291a13.123,13.123,0,0,0-25.635,0h6.047a7.033,7.033,0,0,1,13.553,0Z" transform="translate(-166.16 -264.162)"/>
  </g>
</svg>
