<svg id="Groupe_253" data-name="Groupe 253" xmlns="http://www.w3.org/2000/svg" width="48.9" height="46" viewBox="0 0 48.9 46">
  <circle id="Ellipse_60" data-name="Ellipse 60" cx="15.2" cy="15.2" r="15.2" transform="translate(18.5 14.5)" fill="#d85051" opacity="0.85"/>
  <path id="Tracé_574" data-name="Tracé 574" d="M9.7.3V8.4a.945.945,0,0,1-1,1H1.2" fill="#ed6b5d" stroke="#575756" stroke-miterlimit="10" stroke-width="2"/>
  <path id="Tracé_575" data-name="Tracé 575" d="M9.5,1H35a.988.988,0,0,1,1,.8V44.2a.908.908,0,0,1-1,.8H2a.988.988,0,0,1-1-.8V8.5Z" fill="none" stroke="#575756" stroke-miterlimit="10" stroke-width="2"/>
  <line id="Ligne_75" data-name="Ligne 75" x2="22.1" transform="translate(7.4 21)" fill="none" stroke="#575756" stroke-linecap="round" stroke-linejoin="round" stroke-miterlimit="10" stroke-width="1.942"/>
  <line id="Ligne_76" data-name="Ligne 76" x2="9.1" transform="translate(7.4 24.3)" fill="none" stroke="#575756" stroke-linecap="round" stroke-linejoin="round" stroke-miterlimit="10" stroke-width="2"/>
  <line id="Ligne_77" data-name="Ligne 77" x2="9" transform="translate(20.5 24.3)" fill="none" stroke="#575756" stroke-linecap="round" stroke-linejoin="round" stroke-miterlimit="10" stroke-width="2"/>
  <line id="Ligne_78" data-name="Ligne 78" x2="9.1" transform="translate(7.4 17.3)" fill="none" stroke="#575756" stroke-linecap="round" stroke-linejoin="round" stroke-miterlimit="10" stroke-width="2"/>
  <line id="Ligne_79" data-name="Ligne 79" x2="9" transform="translate(20.5 17.3)" fill="none" stroke="#575756" stroke-linecap="round" stroke-linejoin="round" stroke-miterlimit="10" stroke-width="2"/>
</svg>
