<svg id="Groupe_261" data-name="Groupe 261" xmlns="http://www.w3.org/2000/svg" width="65.2" height="45.5" viewBox="0 0 65.2 45.5">
  <circle id="Ellipse_64" data-name="Ellipse 64" cx="15.2" cy="15.2" r="15.2" transform="translate(0 0)" fill="#d85051" opacity="0.85"/>
  <path id="Tracé_586" data-name="Tracé 586" d="M49.4,9.5H12a.945.945,0,0,0-1,1v33a.945.945,0,0,0,1,1H63.2a1,1,0,0,0,1-1v-33" fill="none" stroke="#575756" stroke-miterlimit="10" stroke-width="2"/>
  <path id="Tracé_587" data-name="Tracé 587" d="M64.1,10.5V3.2a1,1,0,0,0-1-1H50.4a1.075,1.075,0,0,0-1,1v7.3" fill="none" stroke="#575756" stroke-miterlimit="10" stroke-width="2"/>
  <line id="Ligne_80" data-name="Ligne 80" x1="53.1" transform="translate(11 12.9)" fill="none" stroke="#575756" stroke-miterlimit="10" stroke-width="2"/>
  <path id="Tracé_588" data-name="Tracé 588" d="M52.3,32.5H24a1.075,1.075,0,0,1-1-1v-5a1,1,0,0,1,1-1H52.2a1,1,0,0,1,1,1v5A.871.871,0,0,1,52.3,32.5Z" fill="none" stroke="#575756" stroke-miterlimit="10" stroke-width="2"/>
</svg>
