<svg id="Groupe_255" data-name="Groupe 255" xmlns="http://www.w3.org/2000/svg" width="64.5" height="53.7" viewBox="0 0 64.5 53.7">
  <circle id="Ellipse_61" data-name="Ellipse 61" cx="15.2" cy="15.2" r="15.2" transform="translate(0 0)" fill="#d85051" opacity="0.85"/>
  <path id="Tracé_576" data-name="Tracé 576" d="M46.9,39.4V42a.86.86,0,0,1-.8.8H22L11.6,52.7V42.8h-6a.86.86,0,0,1-.8-.8V16a.86.86,0,0,1,.8-.8H21.3" fill="none" stroke="#575756" stroke-linecap="round" stroke-linejoin="round" stroke-miterlimit="10" stroke-width="2"/>
  <path id="Tracé_577" data-name="Tracé 577" d="M22.2,37.9H46.3l10.4,9.9V37.9h6a.86.86,0,0,0,.8-.8V11a.86.86,0,0,0-.8-.8H22.2a.86.86,0,0,0-.8.8V37A.817.817,0,0,0,22.2,37.9Z" fill="none" stroke="#575756" stroke-linecap="round" stroke-linejoin="round" stroke-miterlimit="10" stroke-width="2"/>
  <g id="Groupe_254" data-name="Groupe 254">
    <path id="Tracé_578" data-name="Tracé 578" d="M40.2,20.5v-1a1.02,1.02,0,0,1,.5-.8,3.866,3.866,0,0,1,3.8,0,1.068,1.068,0,0,1,.7.9v2.8a.755.755,0,0,1-.4.7l-1.7,1.3a.867.867,0,0,0-.4.7v1.6" fill="none" stroke="#575756" stroke-miterlimit="10" stroke-width="2"/>
    <circle id="Ellipse_62" data-name="Ellipse 62" cx="0.9" cy="0.9" r="0.9" transform="translate(41.8 28)" fill="#575756"/>
  </g>
</svg>
