<svg id="Groupe_260" data-name="Groupe 260" xmlns="http://www.w3.org/2000/svg" width="30.4" height="53.5" viewBox="0 0 30.4 53.5">
  <circle id="Ellipse_63" data-name="Ellipse 63" cx="15.2" cy="15.2" r="15.2" transform="translate(0 0)" fill="#d85051" opacity="0.85"/>
  <path id="Tracé_579" data-name="Tracé 579" d="M27.2,7.8A16.449,16.449,0,0,1,15,13.1c-5,0-8.6-2-11.9-5.2" fill="none" stroke="#575756" stroke-linecap="square" stroke-miterlimit="10" stroke-width="2"/>
  <path id="Tracé_580" data-name="Tracé 580" d="M18.3,17.7l1.4,29.8c0,.4-4.6,5-4.6,5s-4.6-4.6-4.6-5l1.4-29.8" fill="none" stroke="#575756" stroke-linecap="round" stroke-linejoin="round" stroke-miterlimit="10" stroke-width="2"/>
  <g id="XMLID_2_">
    <g id="Groupe_256" data-name="Groupe 256">
      <path id="Tracé_581" data-name="Tracé 581" d="M19.2,38.5l.2,4.5H10.9l.2-4.5Z" fill="#ed6b5d"/>
    </g>
    <g id="Groupe_257" data-name="Groupe 257">
      <path id="Tracé_582" data-name="Tracé 582" d="M19.2,38.5H11.1L10.9,43h8.5Z" fill="none" stroke="#575756" stroke-miterlimit="10" stroke-width="2"/>
    </g>
  </g>
  <g id="XMLID_1_">
    <g id="Groupe_258" data-name="Groupe 258">
      <path id="Tracé_583" data-name="Tracé 583" d="M18.8,29.3l.1,4.5H11.2l.2-4.5Z" fill="#ed6b5d"/>
    </g>
    <g id="Groupe_259" data-name="Groupe 259">
      <path id="Tracé_584" data-name="Tracé 584" d="M18.8,29.3H11.4l-.2,4.5h7.7Z" fill="none" stroke="#575756" stroke-miterlimit="10" stroke-width="2"/>
    </g>
  </g>
  <path id="Tracé_585" data-name="Tracé 585" d="M18.1,7.4H12.4L9.5,12.3l2.9,5h5.7l2.8-5Z" fill="#ed6b5d" stroke="#575756" stroke-miterlimit="10" stroke-width="2"/>
</svg>
