<svg id="Groupe_264" data-name="Groupe 264" xmlns="http://www.w3.org/2000/svg" width="55.2" height="51.3" viewBox="0 0 55.2 51.3">
  <path id="Tracé_592" data-name="Tracé 592" d="M53.2,50.3H2a1.075,1.075,0,0,1-1-1v-33a1,1,0,0,1,1-1H53.2a.945.945,0,0,1,1,1v33A1,1,0,0,1,53.2,50.3Z" fill="none" stroke="#575756" stroke-miterlimit="10" stroke-width="2"/>
  <circle id="Ellipse_69" data-name="Ellipse 69" cx="15.2" cy="15.2" r="15.2" transform="translate(5.9 0)" fill="#d85051" opacity="0.85"/>
  <path id="Tracé_593" data-name="Tracé 593" d="M1,32.9H21.1v9.2H35.8V24H54.1" fill="none" stroke="#575756" stroke-miterlimit="10" stroke-width="1" stroke-dasharray="3 3"/>
  <g id="Groupe_263" data-name="Groupe 263">
    <path id="Tracé_594" data-name="Tracé 594" d="M28.9,14c0,4.3-7.9,13-7.9,13s-7.9-8.6-7.9-13a7.9,7.9,0,1,1,15.8,0Z" fill="#ed6b5d" stroke="#575756" stroke-miterlimit="10" stroke-width="2"/>
    <circle id="Ellipse_70" data-name="Ellipse 70" cx="2.5" cy="2.5" r="2.5" transform="translate(18.5 12.3)" fill="#ed6b5d" stroke="#575756" stroke-miterlimit="10" stroke-width="2"/>
  </g>
</svg>
