<svg id="Groupe_251" data-name="Groupe 251" xmlns="http://www.w3.org/2000/svg" width="47.9" height="55.22" viewBox="0 0 47.9 55.22">
  <circle id="Ellipse_57" data-name="Ellipse 57" cx="15.2" cy="15.2" r="15.2" transform="translate(17.5 0)" fill="#d85051" opacity="0.85"/>
  <path id="Tracé_563" data-name="Tracé 563" d="M38.9,45.6V10.2a3.585,3.585,0,0,0-3.6-3.6,3.65,3.65,0,0,0-3.6,3.6h0" fill="none" stroke="#575756" stroke-linecap="round" stroke-linejoin="round" stroke-miterlimit="10" stroke-width="2"/>
  <path id="Tracé_564" data-name="Tracé 564" d="M42.9,45.6h0a2.588,2.588,0,0,1-.4,1.4,2.286,2.286,0,0,1-1.4.6,2.191,2.191,0,0,1-2.2-2h0" fill="none" stroke="#575756" stroke-linecap="round" stroke-linejoin="round" stroke-miterlimit="10" stroke-width="2"/>
  <path id="Tracé_565" data-name="Tracé 565" d="M42.9,42.8h0v2.8" fill="none" stroke="#575756" stroke-linecap="round" stroke-linejoin="round" stroke-miterlimit="10" stroke-width="2"/>
  <g id="Groupe_250" data-name="Groupe 250">
    <path id="Tracé_566" data-name="Tracé 566" d="M31.6,10.2v2H1" fill="none" stroke="#575756" stroke-linecap="round" stroke-linejoin="round" stroke-miterlimit="10" stroke-width="2"/>
    <path id="Tracé_567" data-name="Tracé 567" d="M1,10v2" fill="none" stroke="#575756" stroke-linecap="round" stroke-linejoin="round" stroke-miterlimit="10" stroke-width="2"/>
    <path id="Tracé_568" data-name="Tracé 568" d="M1,12.2H1" fill="none" stroke="#575756" stroke-linecap="round" stroke-linejoin="round" stroke-miterlimit="10" stroke-width="2"/>
    <path id="Tracé_569" data-name="Tracé 569" d="M28.5,5.8H4.6A3.65,3.65,0,0,0,1,9.4" fill="none" stroke="#575756" stroke-linecap="round" stroke-linejoin="round" stroke-miterlimit="10" stroke-width="2"/>
  </g>
  <path id="Tracé_570" data-name="Tracé 570" d="M5.8,12.4V46.5a1.11,1.11,0,0,0,1.1,1.1H41" fill="none" stroke="#575756" stroke-linecap="round" stroke-linejoin="round" stroke-miterlimit="10" stroke-width="2"/>
  <line id="Ligne_64" data-name="Ligne 64" x2="22.1" transform="translate(10.6 23.4)" fill="none" stroke="#575756" stroke-linecap="round" stroke-linejoin="round" stroke-miterlimit="10" stroke-width="1.942"/>
  <line id="Ligne_65" data-name="Ligne 65" x2="9" transform="translate(10.6 26.7)" fill="none" stroke="#575756" stroke-linecap="round" stroke-linejoin="round" stroke-miterlimit="10" stroke-width="2"/>
  <line id="Ligne_66" data-name="Ligne 66" x2="9" transform="translate(23.7 26.7)" fill="none" stroke="#575756" stroke-linecap="round" stroke-linejoin="round" stroke-miterlimit="10" stroke-width="2"/>
  <line id="Ligne_67" data-name="Ligne 67" x2="9" transform="translate(10.6 19.7)" fill="none" stroke="#575756" stroke-linecap="round" stroke-linejoin="round" stroke-miterlimit="10" stroke-width="2"/>
  <line id="Ligne_68" data-name="Ligne 68" x2="9" transform="translate(23.7 19.7)" fill="none" stroke="#575756" stroke-linecap="round" stroke-linejoin="round" stroke-miterlimit="10" stroke-width="2"/>
  <path id="Tracé_571" data-name="Tracé 571" d="M26.9,41.2v13c0,.3-4-3-4-3s-4,3.3-4,3v-13" fill="#fff" stroke="#575756" stroke-linecap="round" stroke-linejoin="round" stroke-miterlimit="10" stroke-width="2"/>
  <circle id="Ellipse_58" data-name="Ellipse 58" cx="5.4" cy="5.4" r="5.4" transform="translate(17.5 33.9)" fill="#ed6b5d" stroke="#575756" stroke-miterlimit="10" stroke-width="2"/>
  <line id="Ligne_69" data-name="Ligne 69" y1="6.5" transform="translate(22.9 44.7)" fill="none" stroke="#575756" stroke-linecap="round" stroke-linejoin="round" stroke-miterlimit="10" stroke-width="2"/>
</svg>
