<?xml version="1.0" encoding="UTF-8"?>
<svg width="1153px" height="421px" viewBox="0 0 1153 421" version="1.1" xmlns="http://www.w3.org/2000/svg" xmlns:xlink="http://www.w3.org/1999/xlink">
    <!-- Generator: Sketch 41.2 (35397) - http://www.bohemiancoding.com/sketch -->
    <title>logo</title>
    <desc>Created with Sketch.</desc>
    <defs></defs>
    <g id="Page-1" stroke="none" stroke-width="1" fill="none" fill-rule="evenodd">
        <g id="logo">
            <path d="M421.229,210.769 C421.229,326.875 326.932,421 210.617,421 C94.298,421 0,326.875 0,210.769 C0,94.661 94.298,0.536 210.617,0.536 C326.932,0.536 421.229,94.661 421.229,210.769" id="Fill-1" fill="#DD3C5C"></path>
            <path d="M185.023,267.771 L184.554,268.229 C184.492,268.291 184.411,268.334 184.35,268.392 C175.174,277.386 162.641,282.972 148.769,282.972 C120.689,282.972 97.927,260.252 97.927,232.226 L97.927,147.649 C97.927,147.649 131.823,155.261 131.823,164.564 L131.823,232.226 C131.823,241.567 139.409,249.14 148.769,249.14 C153.423,249.14 157.631,247.263 160.695,244.229 L235.917,153.181 L236.387,152.725 C236.449,152.664 236.524,152.621 236.591,152.559 C245.766,143.569 258.3,137.981 272.171,137.981 C300.251,137.981 323.009,160.703 323.009,188.728 L323.009,273.306 C323.009,273.306 289.117,265.693 289.117,256.39 L289.117,188.728 C289.117,179.387 281.531,171.813 272.171,171.813 C267.518,171.813 263.305,173.689 260.245,176.724 C260.164,176.802 260.103,176.891 260.022,176.973 L185.023,267.771" id="Fill-4" fill="#FFFFFF"></path>
            <path d="M704.418,321.595 C704.418,321.225 704.565,320.784 704.787,320.489 L709.211,313.779 C709.947,312.673 710.759,312.083 711.865,312.083 C713.635,312.083 715.846,313.263 715.846,314.296 C715.846,314.886 715.404,315.401 714.814,315.991 L709.284,321.225 C708.104,322.405 707.22,322.627 705.818,322.627 C705.008,322.627 704.418,322.184 704.418,321.595 L704.418,321.595 Z M687.238,375.565 L687.238,329.852 C687.238,328.23 688.566,326.903 690.114,326.903 L722.188,326.903 C723.662,326.903 724.842,328.083 724.842,329.557 C724.842,331.032 723.662,332.212 722.188,332.212 L693.063,332.212 L693.063,349.833 L718.869,349.833 C720.344,349.833 721.523,351.087 721.523,352.487 C721.523,353.962 720.344,355.141 718.869,355.141 L693.063,355.141 L693.063,373.206 L722.556,373.206 C724.03,373.206 725.21,374.386 725.21,375.86 C725.21,377.335 724.03,378.515 722.556,378.515 L690.114,378.515 C688.566,378.515 687.238,377.187 687.238,375.565 L687.238,375.565 Z" id="Fill-5" fill="#DD3C5C"></path>
            <path d="M759.199,329.557 C759.199,328.009 760.525,326.682 762.074,326.682 L762.885,326.682 C764.213,326.682 765.023,327.346 765.834,328.378 L797.17,368.34 L797.17,329.41 C797.17,327.862 798.424,326.534 800.045,326.534 C801.594,326.534 802.848,327.862 802.848,329.41 L802.848,376.008 C802.848,377.556 801.741,378.735 800.193,378.735 L799.898,378.735 C798.645,378.735 797.76,377.999 796.875,376.966 L764.876,336.046 L764.876,376.008 C764.876,377.556 763.623,378.884 762,378.884 C760.452,378.884 759.199,377.556 759.199,376.008 L759.199,329.557" id="Fill-6" fill="#DD3C5C"></path>
            <path d="M840.006,375.565 L840.006,329.852 C840.006,328.23 841.334,326.903 842.882,326.903 L874.955,326.903 C876.43,326.903 877.609,328.083 877.609,329.557 C877.609,331.032 876.43,332.212 874.955,332.212 L845.831,332.212 L845.831,349.833 L871.637,349.833 C873.111,349.833 874.291,351.087 874.291,352.487 C874.291,353.962 873.111,355.141 871.637,355.141 L845.831,355.141 L845.831,373.206 L875.323,373.206 C876.798,373.206 877.978,374.386 877.978,375.86 C877.978,377.335 876.798,378.515 875.323,378.515 L842.882,378.515 C841.334,378.515 840.006,377.187 840.006,375.565" id="Fill-7" fill="#DD3C5C"></path>
            <path d="M933.645,353.225 C941.386,353.225 946.916,349.243 946.916,342.608 L946.916,342.46 C946.916,336.12 942.049,332.286 933.718,332.286 L917.792,332.286 L917.792,353.225 L933.645,353.225 L933.645,353.225 Z M911.967,329.852 C911.967,328.23 913.295,326.903 914.843,326.903 L934.16,326.903 C940.501,326.903 945.588,328.82 948.832,332.064 C951.34,334.571 952.814,338.184 952.814,342.239 L952.814,342.387 C952.814,350.866 947.063,355.806 939.026,357.354 L951.855,373.87 C952.445,374.533 952.814,375.196 952.814,376.008 C952.814,377.556 951.34,378.884 949.865,378.884 C948.686,378.884 947.801,378.22 947.137,377.335 L932.611,358.46 L917.792,358.46 L917.792,375.934 C917.792,377.556 916.465,378.884 914.843,378.884 C913.295,378.884 911.967,377.556 911.967,375.934 L911.967,329.852 L911.967,329.852 Z" id="Fill-8" fill="#DD3C5C"></path>
            <path d="M985.549,352.856 L985.549,352.709 C985.549,338.553 995.945,326.018 1011.43,326.018 C1019.24,326.018 1024.33,328.083 1029.05,331.548 C1029.71,332.064 1030.23,332.876 1030.23,333.907 C1030.23,335.53 1028.9,336.856 1027.35,336.856 C1026.69,336.856 1026.1,336.561 1025.51,336.12 C1021.82,333.317 1017.7,331.401 1011.21,331.401 C999.779,331.401 991.595,341.059 991.595,352.561 L991.595,352.709 C991.595,365.022 999.484,374.165 1012.02,374.165 C1017.92,374.165 1023.37,371.879 1026.91,369.003 L1026.91,356.175 L1013.05,356.175 C1011.65,356.175 1010.47,354.995 1010.47,353.594 C1010.47,352.119 1011.65,350.939 1013.05,350.939 L1029.64,350.939 C1031.19,350.939 1032.52,352.266 1032.52,353.889 L1032.52,369.593 C1032.52,370.994 1031.85,372.247 1030.52,373.132 C1025.81,376.598 1019.46,379.399 1011.8,379.399 C995.576,379.399 985.549,367.602 985.549,352.856" id="Fill-9" fill="#DD3C5C"></path>
            <path d="M1068.72,329.483 C1068.72,327.862 1070.04,326.534 1071.59,326.534 C1073.21,326.534 1074.54,327.862 1074.54,329.483 L1074.54,375.934 C1074.54,377.556 1073.21,378.884 1071.59,378.884 C1070.04,378.884 1068.72,377.556 1068.72,375.934 L1068.72,329.483" id="Fill-10" fill="#DD3C5C"></path>
            <path d="M1112.22,375.565 L1112.22,329.852 C1112.22,328.23 1113.54,326.903 1115.09,326.903 L1147.16,326.903 C1148.64,326.903 1149.82,328.083 1149.82,329.557 C1149.82,331.032 1148.64,332.212 1147.16,332.212 L1118.04,332.212 L1118.04,349.833 L1143.85,349.833 C1145.32,349.833 1146.5,351.087 1146.5,352.487 C1146.5,353.962 1145.32,355.141 1143.85,355.141 L1118.04,355.141 L1118.04,373.206 L1147.53,373.206 C1149.01,373.206 1150.19,374.386 1150.19,375.86 C1150.19,377.335 1149.01,378.515 1147.53,378.515 L1115.09,378.515 C1113.54,378.515 1112.22,377.187 1112.22,375.565" id="Fill-11" fill="#DD3C5C"></path>
            <path d="M582.52,252.537 C560.907,252.537 543.236,235.664 541.953,214.369 L541.953,209.406 C543.236,188.111 560.907,171.235 582.52,171.235 C604.972,171.235 623.172,189.435 623.172,211.888 C623.172,234.34 604.972,252.537 582.52,252.537 L582.52,252.537 Z M582.52,137.421 C566.019,137.421 550.779,142.798 538.436,151.882 C529.773,145.161 508.057,140.279 508.057,140.279 L508.057,309.988 C508.057,319.291 541.953,326.903 541.953,326.903 L541.953,274.316 C553.626,281.918 567.552,286.35 582.52,286.35 C623.646,286.35 656.986,253.012 656.986,211.888 C656.986,170.76 623.646,137.421 582.52,137.421 L582.52,137.421 Z" id="Fill-12" fill="#455469"></path>
            <path d="M689.319,204.057 L689.319,283.8 L723.216,283.8 L723.216,104.73 C723.216,95.427 689.319,87.815 689.319,87.815 L689.319,204.057" id="Fill-13" fill="#455469"></path>
            <path d="M854.771,157.317 L854.803,219.768 C854.803,231.115 851.773,239.952 845.721,246.268 C839.668,252.582 831.774,255.742 822.053,255.742 C812.145,255.742 804.482,252.676 799.067,246.541 C793.653,240.409 790.953,231.669 790.953,220.312 L790.987,157.317 C790.987,147.879 757.084,140.156 757.084,140.156 L757.084,222.023 C757.084,232.598 758.619,241.882 761.697,249.881 C764.771,257.881 769.169,264.595 774.88,270.021 C780.593,275.443 787.471,279.513 795.53,282.224 C803.588,284.942 812.588,286.297 822.549,286.297 C832.653,286.297 841.771,284.942 849.898,282.224 C858.028,279.513 864.946,275.412 870.657,269.916 C876.37,264.422 880.799,257.572 883.951,249.359 C887.098,241.152 888.676,231.625 888.676,220.769 L888.676,140.156 C888.676,140.156 854.771,147.879 854.771,157.317" id="Fill-14" fill="#455469"></path>
            <path d="M811.473,106.637 L811.473,104.727 C811.473,94.907 803.563,87.815 793.742,87.815 C783.648,87.815 775.738,94.907 775.738,104.727 L775.738,106.637 C775.738,116.457 783.648,123.277 793.742,123.277 C803.563,123.277 811.473,116.457 811.473,106.637 Z" id="Fill-15" fill="#DD3C5C"></path>
            <path d="M848.025,123.277 C857.846,123.277 865.757,116.457 865.757,106.637 L865.757,104.727 C865.757,94.907 857.846,87.815 848.025,87.815 C837.933,87.815 830.022,94.907 830.022,104.727 L830.022,106.637 C830.022,116.457 837.933,123.277 848.025,123.277" id="Fill-16" fill="#DD3C5C"></path>
            <path d="M1147.48,176.572 C1144.41,168.572 1140.01,161.858 1134.3,156.432 C1128.58,151.01 1121.71,146.94 1113.65,144.228 C1105.59,141.511 1096.59,140.156 1086.63,140.156 C1076.52,140.156 1067.4,141.511 1059.28,144.228 C1051.15,146.94 1044.23,151.041 1038.52,156.537 C1038.21,156.829 1037.93,157.14 1037.63,157.44 C1037.3,157.104 1036.98,156.759 1036.63,156.432 C1030.92,151.01 1024.04,146.94 1015.98,144.228 C1007.93,141.511 998.927,140.156 988.966,140.156 C978.861,140.156 969.743,141.511 961.616,144.228 C957.3,145.668 953.335,147.512 949.701,149.736 C939.77,144.14 922.839,140.279 922.839,140.279 L922.839,283.8 L956.743,283.8 L956.713,210.486 L956.716,206.468 C956.755,195.226 959.78,186.46 965.794,180.184 C971.847,173.871 979.74,170.711 989.462,170.711 C999.37,170.711 1007.03,173.777 1012.45,179.912 C1017.53,185.663 1020.21,193.708 1020.53,204.054 C1020.52,204.599 1020.5,205.132 1020.5,205.683 L1020.5,283.8 L1054.4,283.8 L1054.37,206.684 C1054.37,195.338 1057.4,186.501 1063.46,180.184 C1069.51,173.871 1077.4,170.711 1087.12,170.711 C1097.03,170.711 1104.69,173.777 1110.11,179.912 C1115.52,186.044 1118.22,194.784 1118.22,206.14 L1118.19,269.137 C1118.19,278.574 1152.09,286.297 1152.09,286.297 L1152.09,204.43 C1152.09,193.855 1150.56,184.571 1147.48,176.572" id="Fill-17" fill="#455469"></path>
        </g>
    </g>
</svg>