<svg id="icon-square-twitter" xmlns="http://www.w3.org/2000/svg" width="32" height="32" viewBox="0 0 32 32">
  <rect id="square" data-name="square" width="32" height="32" fill="#55acee"/>
  <path id="Tracé_7" data-name="Tracé 7" d="M25.987,9.894a8.277,8.277,0,0,1-2.357.635A4.043,4.043,0,0,0,25.436,8.3a8.319,8.319,0,0,1-2.6.978A4.125,4.125,0,0,0,19.838,8a4.068,4.068,0,0,0-4.1,4.038,4.143,4.143,0,0,0,.1.922A11.724,11.724,0,0,1,7.39,8.739a3.986,3.986,0,0,0-.556,2.032,4.028,4.028,0,0,0,1.824,3.36A4.135,4.135,0,0,1,6.8,13.625c0,.017,0,.034,0,.052a4.059,4.059,0,0,0,3.29,3.96,4.253,4.253,0,0,1-1.081.142,4.07,4.07,0,0,1-.77-.072,4.1,4.1,0,0,0,3.828,2.805A8.39,8.39,0,0,1,6,22.184,11.744,11.744,0,0,0,12.287,24,11.5,11.5,0,0,0,23.953,12.506c0-.173,0-.35-.012-.521A8.313,8.313,0,0,0,25.987,9.894Z" fill="#fff"/>
</svg>
