<svg xmlns="http://www.w3.org/2000/svg" width="32" height="32" viewBox="0 0 32 32">
  <g id="icon-youtube" transform="translate(0 -4)">
    <rect id="square" data-name="square" width="32" height="32" transform="translate(0 4)" fill="#e02f2f"/>
    <g id="Tracé_8" data-name="Tracé 8" transform="translate(0 4)" fill="#e02f2f">
      <path d="M 15.99718379974365 27.4999942779541 C 15.80909156799316 27.49812507629395 7.707278728485107 27.41506195068359 5.191136360168457 27.1618537902832 C 5.059574127197266 27.13678550720215 4.914358615875244 27.11812400817871 4.747779846191406 27.09671020507813 C 3.992019891738892 26.99957084655762 2.849909782409668 26.85276985168457 1.963219881057739 25.86414909362793 L 1.960429906845093 25.86104965209961 L 1.957599878311157 25.85799026489258 C 1.263600945472717 25.10971641540527 0.899192214012146 23.36602783203125 0.8162448406219482 22.75064277648926 C 0.8028118014335632 22.63288307189941 0.4999998807907104 19.94302940368652 0.4999998807907104 17.28899955749512 L 0.4999998807907104 14.70100021362305 C 0.4999998807907104 12.04693698883057 0.8027352690696716 9.35874080657959 0.8162385225296021 9.240409851074219 C 0.8994077444076538 8.624958992004395 1.264447569847107 6.879594326019287 1.958099842071533 6.129459857940674 L 1.960679888725281 6.126669883728027 L 1.963219881057739 6.123849868774414 C 2.935959815979004 5.039299964904785 4.007989883422852 4.930689811706543 4.648499965667725 4.865809917449951 C 4.719954490661621 4.858566761016846 4.78589391708374 4.851844310760498 4.845661640167236 4.844647407531738 C 9.250805854797363 4.504025459289551 15.92009735107422 4.5 15.98699951171875 4.5 L 16.00200080871582 4.5 C 16.06890296936035 4.5 22.73820114135742 4.504024505615234 27.14433288574219 4.844646453857422 C 27.20412635803223 4.851844787597656 27.27011299133301 4.85857629776001 27.34161949157715 4.865819931030273 C 27.98239898681641 4.93071985244751 29.05488014221191 5.039340019226074 30.02663993835449 6.123690128326416 L 30.02934074401855 6.126699924468994 L 30.03207015991211 6.129650115966797 C 30.72643661499023 6.87976598739624 31.0909309387207 8.62530517578125 31.17379951477051 9.240732192993164 C 31.18782806396484 9.363834381103516 31.48999977111816 12.05172538757324 31.48999977111816 14.70199966430664 L 31.48999977111816 17.29000091552734 C 31.48999977111816 19.94043922424316 31.18778991699219 22.62850952148438 31.17379570007324 22.75130081176758 C 31.09070587158203 23.36620712280273 30.72572708129883 25.11066055297852 30.03221893310547 25.85918045043945 L 30.02940940856934 25.86222076416016 L 30.02663993835449 25.86531066894531 C 29.05813980102539 26.94602012634277 27.98716926574707 27.05793952941895 27.3472900390625 27.12480926513672 C 27.27336883544922 27.13253593444824 27.20525550842285 27.13970565795898 27.14366340637207 27.14738845825195 C 22.77302360534668 27.48134231567383 16.17266273498535 27.49959373474121 15.99718379974365 27.4999942779541 Z" stroke="none"/>
      <path d="M 15.98700904846191 5 C 15.92033576965332 5 9.279939651489258 5.004007339477539 4.894447326660156 5.342374801635742 C 4.834747314453125 5.349428176879883 4.769380569458008 5.356122970581055 4.69890022277832 5.363260269165039 C 4.093629837036133 5.424579620361328 3.178939819335938 5.517240524291992 2.335439682006836 6.45768928527832 L 2.330360412597656 6.463350296020508 L 2.325210571289063 6.468929290771484 C 1.789670944213867 7.048065185546875 1.420482635498047 8.511396408081055 1.312337875366211 9.303003311157227 C 1.29267692565918 9.476470947265625 1 12.1053295135498 1 14.70100021362305 L 1 17.28899955749512 C 1 19.88239288330078 1.292751312255859 22.51499938964844 1.312355041503906 22.68810653686523 C 1.420400619506836 23.48016929626465 1.788896560668945 24.94082069396973 2.324199676513672 25.51798057556152 L 2.329870223999023 25.52409934997559 L 2.335439682006836 25.53030967712402 C 3.098020553588867 26.38053894042969 4.088390350341797 26.50783920288086 4.811519622802734 26.60079002380371 C 4.970409393310547 26.6212100982666 5.1214599609375 26.64063262939453 5.262035369873047 26.66644859313965 C 7.765956878662109 26.91448402404785 15.73270988464355 26.9973030090332 15.99855518341064 26.9999885559082 C 16.22132110595703 26.99945259094238 22.75811004638672 26.98019027709961 27.09394454956055 26.64972877502441 C 27.15533256530762 26.64223098754883 27.22266006469727 26.6351146697998 27.29532051086426 26.62751960754395 C 27.93642044067383 26.56052017211914 28.81443977355957 26.46875953674316 29.65428924560547 25.5316104888916 L 29.65982055664063 25.52544021606445 L 29.66544914245605 25.51937103271484 C 30.20053672790527 24.94182586669922 30.56951332092285 23.48013687133789 30.67765235900879 22.68907165527344 C 30.69731330871582 22.51530456542969 30.98999977111816 19.88213348388672 30.98999977111816 17.29000091552734 L 30.98999977111816 14.70199966430664 C 30.98999977111816 12.10888862609863 30.69709205627441 9.474699020385742 30.6776294708252 9.302724838256836 C 30.56954383850098 8.510078430175781 30.20086097717285 7.048032760620117 29.6651496887207 6.469310760498047 L 29.65966987609863 6.463390350341797 L 29.65428924560547 6.457389831542969 C 28.81179046630859 5.517280578613281 27.8967399597168 5.424600601196289 27.29124069213867 5.363269805908203 C 27.22071075439453 5.356122970581055 27.15530395507813 5.349428176879883 27.0955753326416 5.342374801635742 C 22.70909881591797 5.004009246826172 16.06866455078125 5 16.00199890136719 5 L 15.98700904846191 5 M 15.98699951171875 4 L 16.00199890136719 4 C 16.00199890136719 4 22.71699905395508 4 27.19400024414063 4.347000122070313 C 27.81900024414063 4.423999786376953 29.18199920654297 4.431999206542969 30.39900016784668 5.790000915527344 C 31.35799980163574 6.826000213623047 31.67000007629395 9.179000854492188 31.67000007629395 9.179000854492188 C 31.67000007629395 9.179000854492188 31.98999977111816 11.94000053405762 31.98999977111816 14.70199966430664 L 31.98999977111816 17.29000091552734 C 31.98999977111816 20.05200004577637 31.67000007629395 22.8129997253418 31.67000007629395 22.8129997253418 C 31.67000007629395 22.8129997253418 31.35700035095215 25.16500091552734 30.39900016784668 26.19899940490723 C 29.18199920654297 27.55699920654297 27.81900024414063 27.56500053405762 27.19400024414063 27.64500045776367 C 22.71699905395508 27.98799896240234 15.99499988555908 28 15.99499988555908 28 C 15.99499988555908 28 7.677000045776367 27.91900062561035 5.118000030517578 27.6569995880127 C 4.406000137329102 27.51499938964844 2.809000015258789 27.55599975585938 1.590999603271484 26.19799995422363 C 0.6319999694824219 25.16399955749512 0.3199996948242188 22.8120002746582 0.3199996948242188 22.8120002746582 C 0.3199996948242188 22.8120002746582 0 20.05200004577637 0 17.28899955749512 L 0 14.70100021362305 C 0 11.94000053405762 0.3199996948242188 9.179000854492188 0.3199996948242188 9.179000854492188 C 0.3199996948242188 9.179000854492188 0.6329994201660156 6.826000213623047 1.590999603271484 5.790000915527344 C 2.809000015258789 4.431999206542969 4.170999526977539 4.423999786376953 4.795999526977539 4.347000122070313 C 9.271999359130859 4 15.98699951171875 4 15.98699951171875 4 Z" stroke="none" fill="#d87171"/>
    </g>
    <path id="Tracé_9" data-name="Tracé 9" d="M12,10V22l10-6Z" transform="translate(0 4)" fill="#fff"/>
  </g>
</svg>
