<svg xmlns="http://www.w3.org/2000/svg" viewBox="0 0 182.017 86.9">
  <defs>
    <style>
      .cls-1 {
        fill: #2c3739;
      }
    </style>
  </defs>
  <g id="logo-gunster" transform="translate(-11.083 -23)">
    <path id="Tracé_336" data-name="Tracé 336" class="cls-1" d="M77.2,23V72.5h49.5V23Zm35.4,35.5V51.4H98.4l7.1-7.1h14.1V65.6H84.3V30.3h35.4l-7.1,7.1H91.4V58.7m0-.2h21.3"/>
    <path id="Tracé_337" data-name="Tracé 337" class="cls-1" d="M182.2,91.4c1.7,0,2.9,0,3.8.1a9.014,9.014,0,0,1,3.4,1,3.119,3.119,0,0,1,2,3.1c0,1.5-.9,2.6-2.7,3.5a18.76,18.76,0,0,1-6.1,1.5l10.5,8.9H189l-9.9-8.8h-2.2v8.8h-3.4V91.4Zm6,4.6c0-1.6-.9-2.6-2.7-3.2a16.149,16.149,0,0,0-5-.6H177c-.1.6,0,5.9,0,7.9.5,0,5.2,0,6.1-.1,3.4-.7,5.1-2,5.1-4Z"/>
    <path id="Tracé_338" data-name="Tracé 338" class="cls-1" d="M167.8,91.4v.8H155.5v7.6h11.3v.8H155.5v8.2H168v.7H152.3V91.4Z"/>
    <path id="Tracé_339" data-name="Tracé 339" class="cls-1" d="M147.3,91.4v.8h-9.2v17.3h-3.2V92.2h-9.2v-.8Z"/>
    <path id="Tracé_340" data-name="Tracé 340" class="cls-1" d="M122.9,104.6q0,3-4.5,4.5a20.3,20.3,0,0,1-5.9.7,17.473,17.473,0,0,1-6.2-1.2V108a19.41,19.41,0,0,0,6.1,1.2,13.367,13.367,0,0,0,4.8-.8c1.7-.6,2.4-1.7,2.4-2.8a2.891,2.891,0,0,0-1.8-2.6c-.6-.3-1.8-.7-3.7-1.4-2.2-.7-3.9-1.4-5-1.8-2.1-.8-3-2.1-3-3.7,0-1.4.8-2.5,2.5-3.5a14.635,14.635,0,0,1,6.6-1.4,26.919,26.919,0,0,1,6.1.8l-.1.6a24.274,24.274,0,0,0-5.1-.6,11.914,11.914,0,0,0-4.9.9c-1.4.6-1.9,1.4-1.9,2.4a2.367,2.367,0,0,0,1.3,2.1,18.573,18.573,0,0,0,3.2,1.3l4.6,1.6c3.1,1.1,4.5,2.5,4.5,4.3Z"/>
    <path id="Tracé_341" data-name="Tracé 341" class="cls-1" d="M79,91.4l19.9,15.7V91.4h1.2v18.4H97.5L77.7,94.1v15.4H76.3V91.4Z"/>
    <path id="Tracé_342" data-name="Tracé 342" class="cls-1" d="M48.1,91.4v11.9a4.331,4.331,0,0,0,2,3.8,10.358,10.358,0,0,0,6.1,1.5,23.315,23.315,0,0,0,5.9-.8,11.161,11.161,0,0,0,3.6-1.6V91.4h3.4v18.1H65.9V107c-3,1.9-6.8,2.8-11.3,2.8a16.231,16.231,0,0,1-5.2-.8,7.051,7.051,0,0,1-3.4-2.5,6.954,6.954,0,0,1-.7-3.6l-.1-11.5Z"/>
    <path id="Tracé_343" data-name="Tracé 343" class="cls-1" d="M15.6,93.6A20.931,20.931,0,0,1,26.3,91c4.3,0,7.9.8,10.5,2.4l-.6.5a16.734,16.734,0,0,0-7.9-1.8A20.742,20.742,0,0,0,18.9,94c-2.9,1.5-4.4,3.6-4.4,6.2,0,2.5,1.4,4.6,4.2,6.2a17.874,17.874,0,0,0,9.5,2.4,43.424,43.424,0,0,0,6.3-.5V102H28.1v-.8h9.7v7.4a53.3,53.3,0,0,1-11.5,1.3c-4.4,0-8.1-.8-10.9-2.6-2.9-1.8-4.3-4-4.3-6.8-.2-2.8,1.4-5,4.5-6.9Z"/>
  </g>
</svg>
