<svg xmlns="http://www.w3.org/2000/svg" viewBox="0 0 191.6 72.6">
  <defs>
    <style>
      .cls-1 {
        fill: #2c3739;
      }
    </style>
  </defs>
  <g id="logo-rayonier" transform="translate(-5.2 -29.2)">
    <path id="Tracé_289" data-name="Tracé 289" class="cls-1" d="M128.1,46.9c-8.5-5-28.8-17.7-28.8-17.7s-4.2,6-25.2,13.3A159.46,159.46,0,0,1,91,41.6c17.6,0,30.2,3,37.1,5.3"/>
    <path id="Tracé_290" data-name="Tracé 290" class="cls-1" d="M38.2,55.1s37.4-11.4,90.6-3.7c0-.1-36.1-18-90.6,3.7"/>
    <path id="Tracé_291" data-name="Tracé 291" class="cls-1" d="M49.6,91.4h7.6V79.6c0-6,0-10-1.5-12.3s-4.6-3.1-11-3.1H37.6l-3.1,6.6H46.7c1.8.1,2.9.4,2.9,2.7v.8H42c-5.4,0-9,1.5-9,8.6,0,7.5,4.8,8.5,10,8.5h2.8l3.8-2.8Zm-5.1-6.5c-1,0-3.8,0-3.8-2.3,0-2.2,1.7-2.4,3-2.4h5.9v4.6Z"/>
    <path id="Tracé_292" data-name="Tracé 292" class="cls-1" d="M56.3,95.1l3.6,6.7c7.7,0,10.3-.5,13.2-8.7L83.2,64.3H74.9L70.1,81.6,65.3,64.3H57c1,3.1,8.7,26.1,8.7,27.1,0,3.9-3.7,3.9-4.9,3.9Z"/>
    <path id="Tracé_293" data-name="Tracé 293" class="cls-1" d="M94.1,64.2c-8.7,0-12.6,4.1-12.6,13.2,0,10.9,3.4,14.4,14.1,14.4,9,0,12.6-4,12.6-13.6,0-10.4-3.7-14-14.1-14m.5,22c-5.1,0-5.1-5.3-5.1-8.2,0-3.5.6-7.6,5.1-7.6,4.7,0,5.4,4.3,5.4,8,0,5.2-1.7,7.8-5.4,7.8"/>
    <path id="Tracé_294" data-name="Tracé 294" class="cls-1" d="M126.7,91.4h7.6V76.1c0-4.7.1-8.1-1.8-10-1.3-1.3-3.5-1.9-6.9-1.9l-3.9.1L118,67.6V64.3h-7.6V91.5H118V71.2h.3c4.1,0,6.3,0,7.4,1.2,1.1,1.1,1.1,3.1,1,7v12Z"/>
    <path id="Tracé_295" data-name="Tracé 295" class="cls-1" d="M137.4,91.4H145V64.2h-7.6Zm0-30.2H145V54.5h-7.6Z"/>
    <path id="Tracé_296" data-name="Tracé 296" class="cls-1" d="M159.1,64c-7.7,0-12,4.8-12,13.6s3,13.3,9.2,13.7c1.4.1,9.9.1,11.1.1l3.3-6.5c-1.1,0-9.6.1-10.8,0-2.7-.2-4.1-1.3-5-4l-.1-.3h16.5a15.482,15.482,0,0,0,.1-2.2V78c-.1-9.7-3.9-14-12.3-14m4.6,11.1h-9.1v-.3c.3-3.1,2-4.7,4.8-4.7,3.2,0,4,1.9,4.3,4.7Z"/>
    <path id="Tracé_297" data-name="Tracé 297" class="cls-1" d="M172.9,91.4h7.6V76.5c0-3.6.2-5.8,4.1-5.8h2.8l3.5-6.6h-6.7L180.6,67V64.1H173V91.4Z"/>
    <path id="Tracé_298" data-name="Tracé 298" class="cls-1" d="M27.6,78.6c3.8-2,4.8-3.5,4.8-8,0-7.2-3.1-9.7-11.6-9.7H5.2V91.4h7.9v-11h4.2c.7,0,2.7.2,3.4,1.8,1.4,3.1,4,9,4.2,9.2h8.8c-.7-1.3-5.1-10.9-6.1-12.8m-7.8-4.5H13V67h6.5c3.5,0,5,.5,5,3.6,0,2.9-1.2,3.5-4.7,3.5"/>
    <path id="Tracé_299" data-name="Tracé 299" class="cls-1" d="M193.8,64.2v.4h-.6v1.9h-.6V64.6h-.7v-.4Z"/>
    <path id="Tracé_300" data-name="Tracé 300" class="cls-1" d="M194.1,64.2h.9l.4,1.6h0l.5-1.6h.9v2.3h-.6V64.7h0l-.5,1.8h-.5l-.5-1.8h0v1.8h-.6Z"/>
  </g>
</svg>
