<svg xmlns="http://www.w3.org/2000/svg" viewBox="0 0 146.8 99">
  <defs>
    <style>
      .cls-1 {
        fill: #2c3739;
      }
    </style>
  </defs>
  <g id="logo-adidas" transform="translate(-27.7 -18)">
    <path id="Tracé_226" data-name="Tracé 226" class="cls-1" d="M163.1,117c-6.9,0-11-3.5-11.3-8.6h6.5c0,1.6,1,3.8,5.2,3.9,2.8,0,4.2-1.7,4.2-2.9-.2-2-2.6-2.2-5.3-2.6a20.222,20.222,0,0,1-6.5-1.8,6.543,6.543,0,0,1-3.4-6c0-4.5,3.8-8,10.3-8,6.2,0,10.2,3.3,10.6,8.2h-6.2c-.1-1.3-.3-3.4-4-3.4-2.5,0-4.1.5-4.2,2.2,0,2.6,5.2,2.4,9.2,3.4,3.8,1,6.3,3.4,6.3,6.7-.2,6.5-5.2,8.9-11.4,8.9Z"/>
    <path id="Tracé_227" data-name="Tracé 227" class="cls-1" d="M43.5,75.6,65.2,63.1,76.6,82.9H47.7Z"/>
    <path id="Tracé_228" data-name="Tracé 228" class="cls-1" d="M92.1,116.3H85.9V91.4h6.2Z"/>
    <path id="Tracé_229" data-name="Tracé 229" class="cls-1" d="M33.6,104a7.2,7.2,0,0,0,7.2,7,7.285,7.285,0,0,0,7.3-7,7.388,7.388,0,0,0-7.3-7.2,7.3,7.3,0,0,0-7.2,7.2Zm7.1,13a13.1,13.1,0,0,1-13-13,12.889,12.889,0,0,1,13-12.9,12.648,12.648,0,0,1,7.4,2.2v-2h6.1v25H48.1v-1.7a12.816,12.816,0,0,1-7.4,2.4Z"/>
    <path id="Tracé_230" data-name="Tracé 230" class="cls-1" d="M123.8,82.9,93.7,30.6,115.3,18l37.5,64.9Z"/>
    <path id="Tracé_231" data-name="Tracé 231" class="cls-1" d="M62.2,104a7.254,7.254,0,0,0,14.5,0,7.25,7.25,0,0,0-14.5,0Zm7.1,13a12.951,12.951,0,1,1,7.4-23.7V82.9h6.2v33.5H76.7v-1.7a13.754,13.754,0,0,1-7.4,2.3Z"/>
    <path id="Tracé_232" data-name="Tracé 232" class="cls-1" d="M68.8,53.3,90.5,40.9l24.4,42H92.1v6.2H85.9V82.9Z"/>
    <path id="Tracé_233" data-name="Tracé 233" class="cls-1" d="M170.3,89.1a3.1,3.1,0,1,1,3.1-3.1,3.183,3.183,0,0,1-3.1,3.1Zm0-5.8a2.6,2.6,0,1,0,2.6,2.6,2.647,2.647,0,0,0-2.6-2.6Z"/>
    <path id="Tracé_234" data-name="Tracé 234" class="cls-1" d="M171,87.7l-.8-1.4h-.5v1.4h-.5V84.3h1.1a.945.945,0,0,1,1,1,1.087,1.087,0,0,1-.7,1l.8,1.4Zm-.7-3h-.6v1.2h.6a.53.53,0,0,0,.6-.6c.1-.4-.2-.6-.6-.6Z"/>
    <path id="Tracé_235" data-name="Tracé 235" class="cls-1" d="M129,104a7.2,7.2,0,0,0,7.2,7,7.086,7.086,0,0,0,7-7,7.1,7.1,0,1,0-14.2,0Zm6.9,13a13.1,13.1,0,0,1-13-13,12.889,12.889,0,0,1,13-12.9,12.648,12.648,0,0,1,7.4,2.2v-2h6.2v25h-6.2v-1.7a12.583,12.583,0,0,1-7.4,2.4Z"/>
    <path id="Tracé_236" data-name="Tracé 236" class="cls-1" d="M100.5,104a7.152,7.152,0,0,0,14.3,0,7.368,7.368,0,0,0-7.2-7.2,7.281,7.281,0,0,0-7.1,7.2Zm14.4-21.1H121v33.5h-6.1v-1.7a13.126,13.126,0,0,1-20.4-10.8,12.889,12.889,0,0,1,13-12.9,12.434,12.434,0,0,1,7.4,2.2V82.9Z"/>
  </g>
</svg>
