<svg xmlns="http://www.w3.org/2000/svg" viewBox="0 0 194 63.6">
  <defs>
    <style>
      .cls-1 {
        fill: #2c3739;
      }
    </style>
  </defs>
  <g id="logo-eckerd" transform="translate(-3 -35.7)">
    <g id="Groupe_67" data-name="Groupe 67">
      <path id="Tracé_272" data-name="Tracé 272" class="cls-1" d="M108.3,99.3l-21.2-31,12.5-3.4-2.1-8.3-17.4,4s-1.6-18.3-2.3-24.9H68c.8,7.6,5.1,56.9,5.1,56.9h9.8L81.5,77.3l14,21.9h12.8Z"/>
      <circle id="Ellipse_10" data-name="Ellipse 10" class="cls-1" cx="7.2" cy="7.2" r="7.2" transform="translate(81.3 40.7)"/>
    </g>
    <path id="Tracé_273" data-name="Tracé 273" class="cls-1" d="M58.9,79.3H69.4a17.85,17.85,0,0,1-4.5,8.6c-7.2,7.9-20.4,7.8-27.6,0a18.791,18.791,0,0,1,0-25.9c7.2-7.8,20.5-7.8,27.6,0a16.735,16.735,0,0,1,4.5,8.5H58.9a10.815,10.815,0,0,0-1.1-1.8c-3.3-4-10.1-3.8-13.6,0a9.512,9.512,0,0,0,0,12.8c3.5,3.8,10.6,4.2,13.6,0a9.061,9.061,0,0,0,1.1-2.2"/>
    <path id="Tracé_274" data-name="Tracé 274" class="cls-1" d="M158.4,56.5c.1,0,.3,9.4,0,9.4-6.2,0-8.5,2.4-8.5,6.5V92.7c0,.1-9.9.2-9.9,0V72.4c.1-10.2,5.1-15.8,18.4-15.9"/>
    <path id="Tracé_275" data-name="Tracé 275" class="cls-1" d="M184.3,57.9v9.9c-2.1-1.7-4.3-1.9-7-1.9-11.7,0-10.7,16.9,0,16.9,4.3,0,8.3-2.8,8.9-7v-40H197v40c-.4,11-9.6,17.8-19.7,17.8-25.2,0-25.2-37.1,0-37.1a18.219,18.219,0,0,1,7,1.4"/>
    <path id="Tracé_276" data-name="Tracé 276" class="cls-1" d="M32.4,55.1c-5.1,0-19.8.1-19.8.1v10H25.8v9.5H12.6v8.6c0-.2,14.7,0,19.8,0,0,0,.2,9.4,0,9.4H3.1L3,45.5H32.4Z"/>
    <path id="Tracé_277" data-name="Tracé 277" class="cls-1" d="M125.5,81.3c-2.3,3.3-7.2,3.7-10.8,2l22.5-13a17.978,17.978,0,0,0-4.5-8.5c-7.1-7.8-20.4-7.8-27.6,0a18.791,18.791,0,0,0,0,25.9c7.2,7.8,20.4,7.9,27.6,0a17.458,17.458,0,0,0,4.5-8.6H126.7A7.761,7.761,0,0,1,125.5,81.3ZM111.9,68.6a9.555,9.555,0,0,1,11.9-1.5l-14.3,8.3A8.941,8.941,0,0,1,111.9,68.6Z"/>
  </g>
</svg>
