<svg id="Groupe_340" data-name="Groupe 340" xmlns="http://www.w3.org/2000/svg" width="419" height="419" viewBox="0 0 419 419">
  <defs>
    <style>
      .cls-1 {
        fill: #d83a39;
      }

      .cls-2 {
        fill: #991921;
      }

      .cls-3 {
        fill: #ed6b5d;
      }

      .cls-4 {
        fill: #fff;
      }

      .cls-5 {
        fill: #5a5a5a;
      }
    </style>
  </defs>
  <path id="Tracé_664" data-name="Tracé 664" class="cls-1" d="M86.847,209.588A122.775,122.775,0,0,1,209.588,86.847V0C93.85,0,0,93.85,0,209.588A207.991,207.991,0,0,0,28.015,314.294l75.29-43.423A121.529,121.529,0,0,1,86.847,209.588Z" transform="translate(0)"/>
  <path id="Tracé_665" data-name="Tracé 665" class="cls-2" d="M197.572,216.158A122.593,122.593,0,0,1,91.29,154.7L16,198.123a209.483,209.483,0,0,0,362.795,0L303.679,154.7A122.093,122.093,0,0,1,197.572,216.158Z" transform="translate(12.015 116.17)"/>
  <path id="Tracé_666" data-name="Tracé 666" class="cls-3" d="M119.7,0V86.847a122.79,122.79,0,0,1,106.282,184.2L301.1,314.469a207.991,207.991,0,0,0,28.015-104.706C329.112,93.85,235.437,0,119.7,0Z" transform="translate(89.888 0)"/>
  <g id="Groupe_336" data-name="Groupe 336" transform="translate(42.548 49.552)">
    <path id="Tracé_668" data-name="Tracé 668" class="cls-4" d="M29.927,143.678l3.5-.875L32.2,137.725l2.451-.525,1.226,5.078,4.552-1.051.7,2.977L27.826,147.18,25.9,139.126l2.626-.525Z" transform="translate(-23.098 53.477)"/>
    <path id="Tracé_669" data-name="Tracé 669" class="cls-4" d="M35.531,130.75l2.626-.35,1.051,6.829-13.482,2.1-.525-3.152L35.881,134.6Z" transform="translate(-23.624 48.371)"/>
    <path id="Tracé_670" data-name="Tracé 670" class="cls-4" d="M27.2,129.578l3.152-.175L30,124.325l2.451-.175.35,5.078,2.977-.175-.35-5.078,2.451-.175.7,8.229L25.1,133.08l-.7-8.229,2.451-.175Z" transform="translate(-24.225 43.415)"/>
    <path id="Tracé_671" data-name="Tracé 671" class="cls-4" d="M24.3,118.7v-3.5l6.654,4.2,6.829-3.852v3.5L33.4,121.328l4.377,2.276v3.5l-6.654-4.2L24.3,126.756v-3.5l4.377-2.276Z" transform="translate(-24.3 36.957)"/>
    <path id="Tracé_672" data-name="Tracé 672" class="cls-4" d="M24.4,114.352l.175-3.152,13.482,1.051-.175,3.152Z" transform="translate(-24.225 33.953)"/>
    <path id="Tracé_673" data-name="Tracé 673" class="cls-4" d="M24.8,112.27l.875-5.6c.525-3.677,2.977-4.027,4.377-3.852a3.123,3.123,0,0,1,2.626,2.626,2.933,2.933,0,0,1,3.327-1.751c1.4.175,3.677,1.226,3.152,4.9l-.875,5.6Zm6.3-4.2a1.656,1.656,0,0,0-1.4-2.1,1.727,1.727,0,0,0-1.926,1.576l-.35,1.926,3.152.525Zm1.926,2.276,3.327.525.35-1.926a1.656,1.656,0,0,0-1.4-2.1,1.594,1.594,0,0,0-1.926,1.576Z" transform="translate(-23.925 27.63)"/>
    <path id="Tracé_674" data-name="Tracé 674" class="cls-4" d="M38.457,97.2l2.626.525-1.576,6.829L26.2,101.577l.7-2.977,10.506,2.451Z" transform="translate(-22.873 23.44)"/>
    <path id="Tracé_675" data-name="Tracé 675" class="cls-4" d="M31.127,94.4l2.977.875,1.576-4.9,2.276.7L36.38,96.154l2.8.875,1.576-4.9,2.451.7-2.451,7.879L27.8,96.679,30.251,88.8l2.451.7Z" transform="translate(-21.672 17.132)"/>
    <path id="Tracé_676" data-name="Tracé 676" class="cls-4" d="M31.7,86.43l1.226-2.8,8.054,3.677a2.161,2.161,0,0,0,2.977-1.051,2.185,2.185,0,0,0-1.226-2.977L34.677,79.6,35.9,76.8l8.054,3.677a4.887,4.887,0,0,1,2.276,6.829c-1.4,2.977-4.2,3.852-6.654,2.626Z" transform="translate(-18.743 8.121)"/>
    <path id="Tracé_677" data-name="Tracé 677" class="cls-4" d="M44.23,79.292a2.246,2.246,0,0,0,3.152-.7,1.5,1.5,0,0,0-.525-2.276c-.875-.525-1.751,0-2.626.875-1.926,1.576-3.852,3.152-6.128,1.751s-2.276-4.027-1.051-6.128c1.576-2.8,4.2-3.152,6.128-1.926l-1.576,2.8c-1.051-.525-1.926-.525-2.626.525a1.62,1.62,0,0,0,.35,2.1c.7.35,1.576,0,2.451-.7,1.926-1.751,3.852-3.327,6.3-1.926,2.276,1.4,2.626,4.027,1.226,6.478-1.576,2.626-4.027,3.677-6.829,2.1Z" transform="translate(-15.339 3.177)"/>
    <path id="Tracé_678" data-name="Tracé 678" class="cls-4" d="M43.652,68.7,46.1,70.454l2.977-4.2,2.1,1.4-2.977,4.2,2.451,1.751,2.977-4.2,2.1,1.4-4.728,6.829L39.8,69.929,44.528,63.1l2.1,1.4Z" transform="translate(-12.66 -2.167)"/>
    <path id="Tracé_679" data-name="Tracé 679" class="cls-4" d="M44.4,63.352l3.677-4.377a5.009,5.009,0,0,1,7-.7,4.806,4.806,0,0,1,1.576,4.9l5.078.7-2.276,2.8-4.377-.525L54.205,67.2l2.977,2.451-1.926,2.451Zm8.4-2.626a2.081,2.081,0,0,0-3.152.175l-1.4,1.576,3.677,2.977,1.4-1.576A2.106,2.106,0,0,0,52.8,60.726Z" transform="translate(-9.206 -6.622)"/>
    <path id="Tracé_680" data-name="Tracé 680" class="cls-4" d="M53,53.265l4.2-3.852a4.9,4.9,0,1,1,6.654,7.179L61.93,58.343l2.626,2.8-2.276,2.1Zm8.755-1.4c-.875-.875-2.276-1.226-3.152-.175l-1.576,1.4,3.152,3.5,1.576-1.576A2.08,2.08,0,0,0,61.755,51.864Z" transform="translate(-2.748 -13.519)"/>
    <path id="Tracé_681" data-name="Tracé 681" class="cls-4" d="M62.146,53.423a7.126,7.126,0,1,1,9.98,1.4A6.944,6.944,0,0,1,62.146,53.423Zm8.93-6.654c-1.4-1.751-3.852-2.626-5.778-1.051a3.982,3.982,0,0,0-.525,5.778c1.4,1.751,3.852,2.626,5.778,1.051A3.982,3.982,0,0,0,71.076,46.77Z" transform="translate(2.989 -18.054)"/>
    <path id="Tracé_682" data-name="Tracé 682" class="cls-4" d="M68.1,40.6,73,37.625A4.962,4.962,0,0,1,79.831,39.2a4.482,4.482,0,0,1,0,5.078l4.552,2.276-3.152,1.926L77.2,46.555l-1.226.7,1.926,3.152-2.626,1.576Zm8.93.35a2.294,2.294,0,0,0-3.152-.875l-1.926,1.051L74.4,45.154,76.329,44.1A2.143,2.143,0,0,0,77.03,40.952Z" transform="translate(8.591 -21.867)"/>
    <path id="Tracé_683" data-name="Tracé 683" class="cls-4" d="M79.027,37.753l-2.8,1.4L75,36.7l8.4-4.2,1.226,2.451-2.8,1.4,4.9,9.805-2.977,1.4Z" transform="translate(13.773 -25.146)"/>
    <path id="Tracé_684" data-name="Tracé 684" class="cls-4" d="M92.3,42.581l-1.051-1.4L86.7,42.932l.175,1.751-3.152,1.226L83.2,31.551,85.826,30.5l9.63,10.681ZM86,34.7l.525,5.778L89.5,39.255Z" transform="translate(19.93 -26.648)"/>
    <path id="Tracé_685" data-name="Tracé 685" class="cls-4" d="M99.505,37.4l.875,2.626-6.654,2.1L89.7,29.175l2.977-.875,3.152,10.331Z" transform="translate(24.812 -28.3)"/>
  </g>
  <g id="Groupe_337" data-name="Groupe 337" transform="translate(115.212 334.255)">
    <path id="Tracé_686" data-name="Tracé 686" class="cls-4" d="M77.706,194.052a6.784,6.784,0,0,1,1.751,9.63,6.52,6.52,0,0,1-9.63,1.226L65.8,201.931,73.854,190.9ZM74.555,195.1l-4.728,6.654,1.4,1.051a3.9,3.9,0,0,0,5.6-.875,3.834,3.834,0,0,0-.875-5.6Z" transform="translate(-65.8 -190.9)"/>
    <path id="Tracé_687" data-name="Tracé 687" class="cls-4" d="M80.654,210.908l.35-1.751-4.2-2.451-1.226,1.226L72.6,206.18l11.031-9.28,2.451,1.4-2.626,14.183Zm2.451-9.805-4.2,4.027,2.8,1.751Z" transform="translate(-60.694 -186.394)"/>
    <path id="Tracé_688" data-name="Tracé 688" class="cls-4" d="M86.028,203.052l-2.8-1.4,1.226-2.451,8.4,4.027-1.226,2.451-2.8-1.4L84.1,214.083l-2.8-1.4Z" transform="translate(-54.16 -184.667)"/>
    <path id="Tracé_689" data-name="Tracé 689" class="cls-4" d="M93.88,216.883l.175-1.751L89.5,213.381l-1.051,1.4L85.3,213.556,94.755,202.7l2.626,1.051-.35,14.358Zm.7-9.98-3.5,4.552,3.152,1.226Z" transform="translate(-51.157 -182.039)"/>
    <path id="Tracé_690" data-name="Tracé 690" class="cls-4" d="M111.567,216.726c-1.051,2.626-4.027,4.377-7.7,3.677a7.213,7.213,0,0,1-5.6-8.58c.875-3.677,4.027-6.478,8.58-5.428,3.852.875,5.778,3.852,5.428,7l-3.152-.7a3.5,3.5,0,0,0-2.8-3.5,4.3,4.3,0,0,0-1.751,8.4,3.447,3.447,0,0,0,3.852-1.576Z" transform="translate(-41.53 -179.431)"/>
    <path id="Tracé_691" data-name="Tracé 691" class="cls-4" d="M107.914,214.19a7.074,7.074,0,0,1,7.879-6.478,7.213,7.213,0,1,1-1.4,14.358A7.093,7.093,0,0,1,107.914,214.19Zm11.206,1.226a3.978,3.978,0,1,0-4.377,3.852A4.153,4.153,0,0,0,119.12,215.416Z" transform="translate(-34.2 -178.296)"/>
    <path id="Tracé_692" data-name="Tracé 692" class="cls-4" d="M125.4,219.331v2.626h-7V208.3h3.152v10.856Z" transform="translate(-26.301 -177.834)"/>
    <path id="Tracé_693" data-name="Tracé 693" class="cls-4" d="M132.079,218.706l.175,2.626-7,.525L124.2,208.375l3.152-.175.7,10.856Z" transform="translate(-21.945 -177.909)"/>
    <path id="Tracé_694" data-name="Tracé 694" class="cls-4" d="M133.6,210.327l.525,2.977,5.078-.7.35,2.451-5.078.7.525,2.977,5.078-.7.35,2.451-8.229,1.226-2.1-13.482L138.329,207l.35,2.451Z" transform="translate(-17.515 -178.81)"/>
    <path id="Tracé_695" data-name="Tracé 695" class="cls-4" d="M151.782,212.635c.175,2.977-1.576,5.778-5.253,6.829a7.058,7.058,0,0,1-8.93-5.078,6.972,6.972,0,0,1,5.253-8.755c3.852-1.051,6.829.7,8.054,3.677l-3.152.875a3.266,3.266,0,0,0-4.027-1.751,4.014,4.014,0,0,0-2.8,5.253A4.142,4.142,0,0,0,146,216.838a3.286,3.286,0,0,0,2.626-3.152Z" transform="translate(-12.057 -180.068)"/>
    <path id="Tracé_696" data-name="Tracé 696" class="cls-4" d="M149.077,207.228l-2.8,1.051-.875-2.626,8.755-3.152.875,2.626-2.977,1.051,3.852,10.155-2.977,1.051Z" transform="translate(-6.025 -182.189)"/>
    <path id="Tracé_697" data-name="Tracé 697" class="cls-4" d="M151.9,202.326l2.977-1.226,5.6,12.432-2.977,1.226Z" transform="translate(-1.144 -183.24)"/>
    <path id="Tracé_698" data-name="Tracé 698" class="cls-4" d="M157.59,208.313a7.211,7.211,0,1,1,9.805,2.8A7.165,7.165,0,0,1,157.59,208.313Zm9.805-5.428a4.035,4.035,0,0,0-5.6-1.751c-2.1,1.226-2.451,3.677-1.4,5.778a3.907,3.907,0,0,0,5.6,1.751C168.27,207.438,168.445,204.811,167.395,202.885Z" transform="translate(2.446 -185.901)"/>
    <path id="Tracé_699" data-name="Tracé 699" class="cls-4" d="M175.906,200.53l-5.078-7.179,2.451-1.751,7.879,11.031-2.626,1.926-9.1-4.2,5.078,7.179-2.626,1.751L164,198.254l2.626-1.926Z" transform="translate(7.942 -190.374)"/>
  </g>
  <g id="Groupe_338" data-name="Groupe 338" transform="translate(244.957 45.7)">
    <path id="Tracé_700" data-name="Tracé 700" class="cls-4" d="M143.052,26.1l3.152.7-3.152,13.132-3.152-.7Z" transform="translate(-139.9 -26.1)"/>
    <path id="Tracé_701" data-name="Tracé 701" class="cls-4" d="M153.2,38.306l2.8-8.4,2.977.875-4.2,12.957-3.152-1.051L149.7,32.878l-2.626,8.229L144.1,40.057,148.3,27.1l3.152,1.051Z" transform="translate(-136.746 -25.349)"/>
    <path id="Tracé_702" data-name="Tracé 702" class="cls-4" d="M157.8,33.877,155,32.651l1.051-2.451,8.58,3.677-1.051,2.451-2.8-1.226-4.2,9.98L153.6,43.857Z" transform="translate(-129.612 -23.021)"/>
    <path id="Tracé_703" data-name="Tracé 703" class="cls-4" d="M166.379,36.977l-1.4,2.8,4.552,2.451-1.051,2.1-4.552-2.451-1.4,2.626,4.552,2.451-1.226,2.276L158.5,45.381,164.8,33.3l7.354,3.852-1.226,2.276Z" transform="translate(-125.933 -20.693)"/>
    <path id="Tracé_704" data-name="Tracé 704" class="cls-4" d="M174.169,45.564l5.953,3.852L178.9,51.342l-1.226-.7c-2.1,2.276-5.428,2.626-8.4.7-3.852-2.626-4.2-6.654-2.276-9.805a7.022,7.022,0,0,1,9.98-2.1c2.977,1.926,3.852,5.078,2.626,7.354l-2.8-1.751a2.875,2.875,0,0,0-1.4-3.327c-2.1-1.4-4.377-.35-5.778,1.576-1.226,1.926-1.226,4.552,1.051,5.953a3.14,3.14,0,0,0,4.2-.35l-2.1-1.226Z" transform="translate(-120.415 -17.023)"/>
    <path id="Tracé_705" data-name="Tracé 705" class="cls-4" d="M181.855,43.1l4.377,3.677a4.856,4.856,0,0,1,.7,7,5.147,5.147,0,0,1-4.9,1.751l-.525,5.078-2.8-2.276.525-4.377L178,53.08l-2.451,2.977L173.1,54.131Zm2.626,8.58a2.08,2.08,0,0,0-.175-3.152l-1.751-1.4L179.578,50.8l1.751,1.4A2.241,2.241,0,0,0,184.481,51.68Z" transform="translate(-114.969 -13.334)"/>
    <path id="Tracé_706" data-name="Tracé 706" class="cls-4" d="M185.729,63.007l.7-1.576-3.5-3.327-1.576.875L178.9,56.7l12.957-6.3,2.1,2.1L188,65.633Zm4.552-8.93-5.078,2.8,2.276,2.276Z" transform="translate(-110.613 -7.852)"/>
    <path id="Tracé_707" data-name="Tracé 707" class="cls-4" d="M193.8,58.227l-2.1-2.276,2.1-1.751,6.128,7-2.1,1.751-2.1-2.276L187.5,67.857l-2.1-2.276Z" transform="translate(-105.732 -4.999)"/>
    <path id="Tracé_708" data-name="Tracé 708" class="cls-4" d="M199.781,60l1.926,2.451-10.681,8.229L189.1,68.229Z" transform="translate(-102.954 -0.643)"/>
    <path id="Tracé_709" data-name="Tracé 709" class="cls-4" d="M196.137,66.227a7.212,7.212,0,1,1-2.1,9.98A7.061,7.061,0,0,1,196.137,66.227Zm6.128,9.28c1.926-1.226,2.8-3.677,1.4-5.6a4.046,4.046,0,0,0-5.778-1.051c-1.926,1.226-2.8,3.677-1.4,5.6C197.712,76.733,200.339,76.733,202.265,75.507Z" transform="translate(-100.185 3.11)"/>
    <path id="Tracé_710" data-name="Tracé 710" class="cls-4" d="M204.7,84.206l7.879-4.027,1.4,2.8L201.9,89.109l-1.4-2.977,5.6-8.229-7.7,4.027-1.4-2.8L209.081,73l1.4,2.977Z" transform="translate(-97.021 9.119)"/>
    <path id="Tracé_711" data-name="Tracé 711" class="cls-4" d="M206.723,90.076a2.189,2.189,0,0,0-1.576,2.8,1.609,1.609,0,0,0,2.1,1.226c1.051-.35,1.051-1.4,1.051-2.626,0-2.626.175-4.9,2.626-5.778,2.626-.875,4.552.875,5.253,3.152,1.051,2.977-.35,5.253-2.451,5.953l-1.051-2.977a1.717,1.717,0,0,0,1.226-2.276c-.35-.875-1.051-1.4-1.751-1.051-.875.35-1.051,1.051-1.051,2.451,0,2.626,0,5.078-2.626,5.953-2.451.875-4.728-.525-5.6-3.327a4.718,4.718,0,0,1,2.8-6.478Z" transform="translate(-92.912 18.482)"/>
    <path id="Tracé_712" data-name="Tracé 712" class="cls-4" d="M215.956,96.577l-2.977.7,1.226,4.9-2.451.7-1.226-4.9-2.977.7,1.4,4.9-2.451.7-2.1-8.054L217.532,92.9l2.1,8.054-2.451.7Z" transform="translate(-91.464 24.063)"/>
    <path id="Tracé_713" data-name="Tracé 713" class="cls-4" d="M219.507,100.5l.875,5.6a4.643,4.643,0,0,1-4.027,5.6,4.5,4.5,0,0,1-4.728-1.926l-3.852,3.327-.525-3.677,3.327-2.977-.175-1.4-3.677.7L206.2,102.6Zm-3.677,8.054a2.179,2.179,0,0,0,1.926-2.451l-.35-2.1-4.552.7.35,2.1A2.109,2.109,0,0,0,215.83,108.554Z" transform="translate(-90.113 29.77)"/>
    <path id="Tracé_714" data-name="Tracé 714" class="cls-4" d="M207.775,117.18l-.175-2.8,13.132-5.778.175,3.327-9.28,3.677,9.805,2.276.175,3.327Z" transform="translate(-89.061 35.853)"/>
    <path id="Tracé_715" data-name="Tracé 715" class="cls-4" d="M221.457,117.9v3.152H207.8V117.9Z" transform="translate(-88.911 42.836)"/>
    <path id="Tracé_716" data-name="Tracé 716" class="cls-4" d="M212.132,135.947c-2.8-.7-4.9-3.327-4.728-7.179a6.876,6.876,0,0,1,7.7-6.654c3.677.35,7,3.152,6.478,7.7-.35,4.027-2.977,6.3-6.128,6.3l.175-3.327a3.155,3.155,0,0,0,2.977-3.327,4.3,4.3,0,0,0-8.58-.525,3.235,3.235,0,0,0,2.1,3.5Z" transform="translate(-89.216 45.976)"/>
    <path id="Tracé_717" data-name="Tracé 717" class="cls-4" d="M217.931,136.8l-2.977-.525-.875,5.078-2.451-.35.875-5.078-2.977-.525-.875,5.078-2.451-.35,1.4-8.229,13.307,2.276-1.4,8.229-2.451-.35Z" transform="translate(-90.113 53.349)"/>
    <path id="Tracé_718" data-name="Tracé 718" class="cls-4" d="M210.077,142.4a2.214,2.214,0,0,0-2.8,1.4,1.511,1.511,0,0,0,1.051,2.1c1.051.35,1.576-.525,2.451-1.576,1.4-2.1,2.8-4.027,5.428-3.327s3.152,3.152,2.626,5.6c-.875,3.152-3.152,4.2-5.428,3.5l.876-2.977c1.226.35,2.1,0,2.276-1.226.175-.875,0-1.751-.875-1.926s-1.576.35-2.276,1.4c-1.4,2.1-2.8,4.2-5.6,3.5-2.626-.7-3.5-3.152-2.8-5.953.7-2.977,2.977-4.552,5.953-3.852Z" transform="translate(-91.188 58.61)"/>
  </g>
  <g id="Groupe_339" data-name="Groupe 339" transform="translate(154.433 194.529)">
    <path id="Tracé_719" data-name="Tracé 719" class="cls-5" d="M88.2,111.3h6.128c4.027,0,4.728,2.626,4.728,4.027a3.159,3.159,0,0,1-2.276,3.152,3.182,3.182,0,0,1,2.451,3.327c0,1.576-.7,4.2-4.728,4.2H88.2Zm5.253,5.953a1.854,1.854,0,0,0,2.1-1.751c0-.7-.35-1.751-2.1-1.751h-2.1v3.5ZM91.527,119.7v3.677h2.1a1.854,1.854,0,0,0,2.1-1.751c0-.7-.35-1.751-2.1-1.751h-2.1Z" transform="translate(-88.2 -110.95)"/>
    <path id="Tracé_720" data-name="Tracé 720" class="cls-5" d="M97.05,111.3h3.327v9.63a2.282,2.282,0,1,0,4.552,0V111.3h3.327v9.63a5.789,5.789,0,0,1-11.556,0V111.3Z" transform="translate(-81.817 -110.95)"/>
    <path id="Tracé_721" data-name="Tracé 721" class="cls-5" d="M109.127,121.255a2.413,2.413,0,0,0,2.276,2.626,1.8,1.8,0,0,0,1.926-1.751c0-1.226-1.051-1.576-2.276-2.1-2.626-1.051-4.9-1.926-4.9-4.728,0-2.977,2.451-4.2,5.253-4.2,3.5,0,5.253,2.1,5.253,4.728h-3.5a1.888,1.888,0,0,0-1.926-2.1,1.61,1.61,0,0,0-1.751,1.576c0,.875.7,1.576,2.1,1.926,2.626.875,5.253,1.751,5.253,4.9,0,2.8-2.276,4.552-5.428,4.552-3.327,0-5.6-1.926-5.6-5.253h3.327Z" transform="translate(-74.983 -111.1)"/>
    <path id="Tracé_722" data-name="Tracé 722" class="cls-5" d="M114.6,111.3h3.5v14.708h-3.5Z" transform="translate(-68.375 -110.95)"/>
    <path id="Tracé_723" data-name="Tracé 723" class="cls-5" d="M128.155,120.83V111.2h3.327v14.708h-3.5l-5.253-9.455v9.455H119.4V111.2h3.5Z" transform="translate(-64.771 -111.025)"/>
    <path id="Tracé_724" data-name="Tracé 724" class="cls-5" d="M132.527,114v3.327h5.6v2.626h-5.6v3.152h5.6v2.8H129.2V111.2h8.93V114Z" transform="translate(-57.411 -111.025)"/>
    <path id="Tracé_725" data-name="Tracé 725" class="cls-5" d="M139.952,121.255a2.413,2.413,0,0,0,2.276,2.626,1.8,1.8,0,0,0,1.926-1.751c0-1.226-1.051-1.576-2.276-2.1-2.626-1.051-4.9-1.926-4.9-4.728,0-2.977,2.451-4.2,5.253-4.2,3.5,0,5.253,2.1,5.253,4.728h-3.327a1.888,1.888,0,0,0-1.926-2.1,1.61,1.61,0,0,0-1.751,1.576c0,.875.7,1.576,2.1,1.926,2.626.875,5.253,1.751,5.253,4.9,0,2.8-2.276,4.552-5.428,4.552-3.327,0-5.6-1.926-5.6-5.253h3.152Z" transform="translate(-51.704 -111.1)"/>
    <path id="Tracé_726" data-name="Tracé 726" class="cls-5" d="M148.452,121.255a2.413,2.413,0,0,0,2.276,2.626,1.8,1.8,0,0,0,1.926-1.751c0-1.226-1.051-1.576-2.276-2.1-2.626-1.051-4.9-1.926-4.9-4.728,0-2.977,2.451-4.2,5.253-4.2,3.5,0,5.253,2.1,5.253,4.728h-3.327a1.888,1.888,0,0,0-1.926-2.1,1.61,1.61,0,0,0-1.751,1.576c0,.875.7,1.576,2.1,1.926,2.626.875,5.253,1.751,5.253,4.9,0,2.8-2.276,4.552-5.428,4.552-3.327,0-5.6-1.926-5.6-5.253h3.152Z" transform="translate(-45.321 -111.1)"/>
    <path id="Tracé_727" data-name="Tracé 727" class="cls-5" d="M106.929,137.431v2.977H99.4V125.7h3.327v11.731Z" transform="translate(-79.789 -100.136)"/>
    <path id="Tracé_728" data-name="Tracé 728" class="cls-5" d="M104.9,133.2a7.547,7.547,0,0,1,7.7-7.7,7.443,7.443,0,0,1,7.7,7.7,7.547,7.547,0,0,1-7.7,7.7A7.443,7.443,0,0,1,104.9,133.2Zm12.081,0c0-2.451-1.576-4.728-4.377-4.728a4.525,4.525,0,0,0-4.377,4.728c0,2.451,1.576,4.728,4.377,4.728A4.621,4.621,0,0,0,116.981,133.2Z" transform="translate(-75.659 -100.286)"/>
    <path id="Tracé_729" data-name="Tracé 729" class="cls-5" d="M124.63,132.754h7.7v2.626h-1.576c-.525,3.5-3.327,5.6-7.179,5.6a7.488,7.488,0,0,1-7.879-7.7,7.59,7.59,0,0,1,7.7-7.879c3.852,0,6.478,2.276,6.829,5.078h-3.677A3.136,3.136,0,0,0,123.4,128.2c-2.626,0-4.2,2.276-4.2,4.9s1.576,4.728,4.377,4.728a3.2,3.2,0,0,0,3.5-2.8h-2.626v-2.276Z" transform="translate(-67.549 -100.362)"/>
    <path id="Tracé_730" data-name="Tracé 730" class="cls-5" d="M127.4,125.7h3.5v14.708h-3.5V125.7Z" transform="translate(-58.763 -100.136)"/>
    <path id="Tracé_731" data-name="Tracé 731" class="cls-5" d="M146.933,135.305c-.525,3.152-3.152,5.6-7.354,5.6a7.591,7.591,0,0,1-7.879-7.7,7.488,7.488,0,0,1,7.879-7.7c4.377,0,7,2.626,7.354,6.128h-3.5a3.552,3.552,0,0,0-3.852-2.977c-2.8,0-4.377,2.276-4.377,4.728a4.423,4.423,0,0,0,4.377,4.728,3.5,3.5,0,0,0,3.677-2.626h3.677Z" transform="translate(-55.534 -100.286)"/>
  </g>
</svg>
