<svg xmlns="http://www.w3.org/2000/svg" viewBox="0 0 40.333 35.39">
  <defs>
    <style>
      .cls-1 {
        fill: #5A5A5A;
      }
    </style>
  </defs>
  <g id="quote" transform="translate(-5 -10.516)">
    <path id="Tracé_13" data-name="Tracé 13" class="cls-1" d="M5,33.495C5,20.584,16.92,12.718,18.771,11.737A8.37,8.37,0,0,1,22.2,10.516c.741,0,1.231.36,1.231.981A2.914,2.914,0,0,1,22.2,13.338c-1.711,1.231-6.516,7.626-6.516,13.651a4.132,4.132,0,0,0,1.841,3.563c1.111.61,6.275,1.721,6.275,8.227A7.186,7.186,0,0,1,16.429,45.9C10.775,45.9,5,41.612,5,33.495Z"/>
    <path id="Tracé_14" data-name="Tracé 14" class="cls-1" d="M53.014,33.495c0-12.911,11.93-20.777,13.772-21.758a8.408,8.408,0,0,1,3.443-1.221c.74,0,1.221.36,1.221.981a2.893,2.893,0,0,1-1.221,1.841c-1.721,1.231-6.515,7.626-6.515,13.651a4.131,4.131,0,0,0,1.841,3.563c1.111.611,6.275,1.721,6.275,8.227A7.2,7.2,0,0,1,64.444,45.9C58.8,45.9,53.014,41.612,53.014,33.495Z" transform="translate(-26.497)"/>
  </g>
</svg>
